<?xml version="1.0" encoding="UTF-8" standalone="no"?>
<svg
   xmlns:dc="http://purl.org/dc/elements/1.1/"
   xmlns:cc="http://creativecommons.org/ns#"
   xmlns:rdf="http://www.w3.org/1999/02/22-rdf-syntax-ns#"
   xmlns:svg="http://www.w3.org/2000/svg"
   xmlns="http://www.w3.org/2000/svg"
   viewBox="0 0 1440 1440"
   height="1440"
   width="1440"
   xml:space="preserve"
   id="svg2"
   version="1.1"><metadata
     id="metadata8"><rdf:RDF><cc:Work
         rdf:about=""><dc:format>image/svg+xml</dc:format><dc:type
           rdf:resource="http://purl.org/dc/dcmitype/StillImage" /></cc:Work></rdf:RDF></metadata><defs
     id="defs6"><clipPath
       id="clipPath18"
       clipPathUnits="userSpaceOnUse"><path
         id="path16"
         d="M 0,1080 H 1080 V 0 H 0 Z" /></clipPath></defs><g
     transform="matrix(1.3333333,0,0,-1.3333333,0,1440)"
     id="g10"><g
       id="g12"><g
         clip-path="url(#clipPath18)"
         id="g14"><g
           transform="translate(620.7402,539)"
           id="g20"><path
             id="path22"
             style="fill:#5023dd;fill-opacity:1;fill-rule:nonzero;stroke:none"
             d="M 0,0 C -0.13,-0.14 -0.271,-0.29 -0.38,-0.43 0.06,0.06 0.51,0.55 0.95,1.03 0.63,0.69 0.31,0.35 0,0 M 0,0 C -0.13,-0.14 -0.271,-0.29 -0.38,-0.43 0.06,0.06 0.51,0.55 0.95,1.03 0.63,0.69 0.31,0.35 0,0 M 0,0 C -0.13,-0.14 -0.271,-0.29 -0.38,-0.43 0.06,0.06 0.51,0.55 0.95,1.03 0.63,0.69 0.31,0.35 0,0 M 0,0 C -0.13,-0.14 -0.271,-0.29 -0.38,-0.43 0.06,0.06 0.51,0.55 0.95,1.03 0.63,0.69 0.31,0.35 0,0" /></g><g
           transform="translate(750.7197,357.1797)"
           id="g24"><path
             id="path26"
             style="fill:#203567;fill-opacity:1;fill-rule:nonzero;stroke:none"
             d="m 0,0 h -33.51 v 180.551 c 0,13.529 -4.979,29.499 -12.7,42.74 -3.72,6.399 -8.09,12.159 -12.84,16.699 -0.139,0.14 -0.29,0.281 -0.429,0.41 l -18.51,17.32 -21.631,20.23 -12.04,11.27 -15.29,14.29 -58.159,54.42 -15.281,14.29 -32.82,30.7 22.981,21.49 30.299,-28.34 15.13,-14.16 57.361,-53.66 3.91,-3.66 15.42,-14.42 6.71,-6.28 51.589,-48.26 13.04,-12.2 c 1.07,-1 2.121,-2.15 3.15,-3.42 1.81,-2.23 3.54,-4.82 5.12,-7.63 v -0.01 C -3.54,223.601 0,212.78 0,204.78 Z m -62.55,0 h -33.519 v 156.311 c 0,8.019 -1.75,16.91 -4.79,25.569 -1.361,3.911 -2.991,7.76 -4.841,11.471 -1.409,2.869 -2.96,5.649 -4.63,8.289 -3.48,5.55 -7.449,10.53 -11.71,14.52 l -28.199,26.381 -14.41,13.48 -1.051,0.979 -30.21,28.271 -21.16,19.79 -16,14.969 -0.14,0.13 0.38,0.361 13.43,12.549 9.171,8.58 8.549,-8 12.21,-11.42 42.87,-40.1 15.29,-14.31 31.81,-29.759 15.641,-14.621 3.75,-3.51 0.79,-0.74 c 3.13,-2.93 6.159,-7.16 8.759,-11.93 4.701,-8.6 8.01,-18.98 8.01,-26.709 z m -67.809,181.391 c 0.109,0.139 0.25,0.29 0.38,0.429 0.309,0.35 0.629,0.69 0.95,1.031 -0.441,-0.481 -0.891,-0.971 -1.33,-1.46 m -125.001,75.059 -1.74,-1.63 -13.72,-12.84 -27.6,-25.82 c -4.41,-4.13 -8.51,-9.309 -12.07,-15.099 -1.79,-2.901 -3.449,-5.951 -4.949,-9.091 -1.681,-3.51 -3.161,-7.13 -4.411,-10.8 -2.879,-8.44 -4.54,-17.06 -4.54,-24.859 V 0 h -33.52 v 180.551 c 0,7.579 3.181,17.699 7.73,26.199 2.64,4.93 5.741,9.32 8.951,12.351 l 0.089,0.089 4.11,3.84 15.14,14.17 32.19,30.111 15.29,14.299 19.94,18.661 9.04,-8.46 13.94,-13.031 z m -106.43,-16.83 c -4.71,-4.579 -9.03,-10.349 -12.71,-16.75 -7.58,-13.16 -12.45,-28.93 -12.45,-42.319 V 0 h -33.51 v 204.78 c 0,7.63 3.22,17.85 7.82,26.39 1.69,3.141 3.57,6.05 5.54,8.53 1.11,1.39 2.25,2.651 3.4,3.73 l 12.71,11.89 50.801,47.52 7.389,6.91 15.41,14.42 3.11,2.91 58.1,54.35 1.71,1.6 22.98,-21.489 -4.43,-4.151 -58.1,-54.349 -15.28,-14.291 -12.58,-11.77 -21.57,-20.18 -17.529,-16.4 c -0.271,-0.25 -0.541,-0.51 -0.811,-0.78 m 378.04,8.08 c -0.59,1.01 -1.189,2 -1.81,2.97 -3.4,5.33 -7.24,10.11 -11.37,13.97 l -3.33,3.11 -1.349,1.271 -62.481,58.449 -15.649,14.64 -13.631,12.75 -36.199,33.87 -14.231,13.311 -15.179,14.199 -41.331,38.66 c -5.589,5.23 -14.26,5.22 -19.84,0 l -41.8,-39.1 -15.18,-14.199 -15.57,-14.56 -35.8,-33.5 -12.63,-11.811 -15.65,-14.64 -62.94,-58.88 -0.759,-0.7 -3.061,-2.87 c -4.189,-3.92 -8.08,-8.8 -11.52,-14.23 -0.83,-1.3 -1.62,-2.63 -2.39,-4 -7.35,-13.01 -12.06,-28.47 -12.06,-41.63 v -219.3 c 0,-8.02 6.5,-14.52 14.531,-14.52 h 176.339 c 8.02,0 14.52,6.5 14.52,14.52 0,0.291 -0.01,0.581 -0.03,0.871 -0.329,5.639 -3.88,10.41 -8.84,12.509 -1.73,0.741 -3.65,1.14 -5.65,1.14 h -36.71 v 156.311 c 0,6.649 2.45,15.259 6.121,23.019 2.969,6.25 6.729,11.95 10.649,15.62 l 13.41,12.55 h 0.01 l 9.57,8.96 14.55,13.61 1.22,1.14 29.591,27.68 28.939,-27.079 0.69,-0.631 15.071,-14.11 9.159,-8.56 14.49,-13.56 c 3.771,-3.53 7.401,-8.94 10.311,-14.91 3.859,-7.939 6.46,-16.88 6.46,-23.729 V 0 h -36.71 c -1.951,0 -3.801,-0.38 -5.491,-1.069 h -0.009 l -0.011,-0.011 c -5.12,-2.109 -8.779,-7.04 -9,-12.869 -0.02,-0.191 -0.02,-0.381 -0.02,-0.571 0,-8.02 6.5,-14.52 14.531,-14.52 H 14.53 c 8.02,0 14.52,6.5 14.52,14.52 v 219.3 c 0,13.59 -5.02,29.64 -12.8,42.92" /></g><g
           transform="translate(838.5596,642.27)"
           id="g28"><path
             id="path30"
             style="fill:#70dbbb;fill-opacity:1;fill-rule:nonzero;stroke:none"
             d="m 0,0 c -23.22,-1.19 -45.899,-4.87 -67.899,-10.98 2.189,22.73 1.87,45.71 -0.981,68.78 -0.849,6.85 -1.92,13.67 -3.229,20.46 28.21,7.86 57.819,11.54 88.069,10.71 C 22.03,59.32 23.551,29.52 20.71,0.37 13.801,0.48 6.891,0.36 0,0 m -528.24,57.8 c -2.85,-23.07 -3.17,-46.05 -0.98,-68.78 -22,6.11 -44.679,9.79 -67.9,10.98 -6.89,0.36 -13.799,0.48 -20.71,0.37 -2.839,29.15 -1.319,58.95 4.75,88.6 30.25,0.83 59.86,-2.85 88.07,-10.71 -1.309,-6.79 -2.38,-13.61 -3.23,-20.46 M 140.721,-24.99 C 109.24,-11.58 75.49,-3.35 41.391,-0.61 44.62,33.45 42.36,68.11 34.631,101.45 l -1.771,7.65 -7.849,0.42 c -34.17,1.82 -68.7,-1.97 -101.681,-11.07 -8.62,33.11 -22.59,64.92 -41.26,93.6 l -4.29,6.59 -7.519,-2.3 c -32.731,-9.97 -63.88,-25.35 -91.761,-45.18 -19.409,28.17 -43.43,53.28 -70.779,73.84 l -6.281,4.73 -6.28,-4.73 c -27.349,-20.56 -51.369,-45.67 -70.78,-73.84 -27.88,19.83 -59.029,35.21 -91.759,45.18 l -7.52,2.3 -4.29,-6.59 c -18.67,-28.68 -32.641,-60.49 -41.261,-93.6 -32.98,9.1 -67.509,12.89 -101.679,11.07 l -7.85,-0.42 -1.771,-7.65 c -7.729,-33.34 -9.99,-68 -6.76,-102.06 -34.099,-2.74 -67.849,-10.97 -99.33,-24.38 l -7.24,-3.08 0.951,-7.8 c 5.81,-47.7 22.659,-94.16 48.73,-134.37 27.33,-42.16 63.409,-76.37 107.219,-101.67 16.43,-9.48 33.39,-17.4 50.83,-23.72 v 22.35 c -13.779,5.42 -27.279,11.91 -40.379,19.48 -78.911,45.56 -131.271,122.73 -144.581,212.59 28.141,11.13 57.23,17.8 86.431,20.05 1.079,-6.82 2.4,-13.6 3.949,-20.32 11.27,-48.97 33.471,-93.46 65.991,-132.22 8.969,-10.69 18.509,-20.68 28.589,-29.95 v 29.32 c -4.319,4.54 -8.52,9.23 -12.58,14.07 -34.42,41.03 -56.489,89.18 -65.139,139.97 30.019,0.19 59.949,-4.28 88.869,-13.34 1.1,-0.34 2.2,-0.69 3.301,-1.05 3.44,5.43 7.33,10.31 11.52,14.23 l 3.06,2.87 0.759,0.7 c -3.759,29.73 -2.919,59.63 2.42,88.83 21.241,-7.59 41.531,-17.62 60.52,-29.95 l 15.65,14.64 c -16.4,10.97 -33.88,20.4 -52.37,28.23 -6.36,2.69 -12.809,5.17 -19.34,7.44 7.301,28.36 18.93,55.85 34.77,81.63 28.71,-9.57 55.27,-23.15 79.091,-40.19 -3.551,-5.93 -6.89,-11.97 -10.031,-18.12 -7.83,-15.32 -14.319,-31.07 -19.49,-47.18 l 35.8,33.5 c 3.17,6.48 6.581,12.85 10.24,19.08 1.8,-1.49 3.571,-3 5.33,-4.52 l 15.18,14.2 c -3.06,2.69 -6.18,5.33 -9.35,7.91 16.55,24.16 36.88,46.01 60.58,64.82 23.701,-18.81 44.031,-40.66 60.581,-64.82 -3,-2.43 -5.941,-4.92 -8.84,-7.47 l 15.179,-14.2 c 1.59,1.38 3.201,2.74 4.821,4.08 3.34,-5.69 6.469,-11.49 9.41,-17.39 l 36.199,-33.87 c -5.09,15.65 -11.449,30.96 -19.06,45.86 -3.139,6.15 -6.48,12.19 -10.03,18.12 23.821,17.04 50.38,30.62 79.09,40.19 15.841,-25.78 27.471,-53.27 34.771,-81.63 -6.531,-2.27 -12.981,-4.75 -19.34,-7.44 -18.281,-7.74 -35.561,-17.04 -51.8,-27.85 l 15.649,-14.64 c 18.83,12.15 38.93,22.06 59.951,29.57 5.29,-28.93 6.16,-58.56 2.53,-88.02 l 1.349,-1.27 3.33,-3.11 c 4.13,-3.86 7.97,-8.64 11.371,-13.97 0.83,0.27 1.649,0.54 2.479,0.79 28.92,9.06 58.851,13.53 88.87,13.34 -8.649,-50.79 -30.72,-98.94 -65.139,-139.97 -3.76,-4.48 -7.621,-8.83 -11.601,-13.04 v -29.44 c 9.721,9.01 18.931,18.7 27.61,29.04 32.521,38.76 54.72,83.25 65.991,132.22 1.549,6.72 2.87,13.5 3.95,20.32 29.199,-2.25 58.29,-8.92 86.429,-20.05 -13.309,-89.86 -65.669,-167.03 -144.58,-212.59 -12.79,-7.39 -25.96,-13.75 -39.4,-19.1 v -22.37 c 17.091,6.26 33.73,14.05 49.851,23.36 43.809,25.3 79.889,59.51 107.219,101.67 26.071,40.21 42.92,86.67 48.731,134.37 l 0.949,7.8 z" /></g></g></g>
</g></svg>